<svg width="900" height="600" xmlns="http://www.w3.org/2000/svg">
  <rect width="900" height="600" fill="white" />
  <text x="450" y="30" font-family="Arial, sans-serif" font-size="18" font-weight="bold" text-anchor="middle">Execution Time Benchmark (less is better)</text>
  <g transform="translate(80, 60)">
    <line x1="0" y1="480" x2="700" y2="480" stroke="#ddd" stroke-width="1" />
    <text x="-10" y="480" font-family="Arial, sans-serif" font-size="12" text-anchor="end" dominant-baseline="middle">0</text>
    <line x1="0" y1="432" x2="700" y2="432" stroke="#ddd" stroke-width="1" />
    <text x="-10" y="432" font-family="Arial, sans-serif" font-size="12" text-anchor="end" dominant-baseline="middle">400</text>
    <line x1="0" y1="384" x2="700" y2="384" stroke="#ddd" stroke-width="1" />
    <text x="-10" y="384" font-family="Arial, sans-serif" font-size="12" text-anchor="end" dominant-baseline="middle">800</text>
    <line x1="0" y1="336" x2="700" y2="336" stroke="#ddd" stroke-width="1" />
    <text x="-10" y="336" font-family="Arial, sans-serif" font-size="12" text-anchor="end" dominant-baseline="middle">1200</text>
    <line x1="0" y1="288" x2="700" y2="288" stroke="#ddd" stroke-width="1" />
    <text x="-10" y="288" font-family="Arial, sans-serif" font-size="12" text-anchor="end" dominant-baseline="middle">1600</text>
    <line x1="0" y1="240" x2="700" y2="240" stroke="#ddd" stroke-width="1" />
    <text x="-10" y="240" font-family="Arial, sans-serif" font-size="12" text-anchor="end" dominant-baseline="middle">2000</text>
    <line x1="0" y1="192" x2="700" y2="192" stroke="#ddd" stroke-width="1" />
    <text x="-10" y="192" font-family="Arial, sans-serif" font-size="12" text-anchor="end" dominant-baseline="middle">2400</text>
    <line x1="0" y1="144" x2="700" y2="144" stroke="#ddd" stroke-width="1" />
    <text x="-10" y="144" font-family="Arial, sans-serif" font-size="12" text-anchor="end" dominant-baseline="middle">2800</text>
    <line x1="0" y1="96" x2="700" y2="96" stroke="#ddd" stroke-width="1" />
    <text x="-10" y="96" font-family="Arial, sans-serif" font-size="12" text-anchor="end" dominant-baseline="middle">3200</text>
    <line x1="0" y1="48" x2="700" y2="48" stroke="#ddd" stroke-width="1" />
    <text x="-10" y="48" font-family="Arial, sans-serif" font-size="12" text-anchor="end" dominant-baseline="middle">3600</text>
    <line x1="0" y1="0" x2="700" y2="0" stroke="#ddd" stroke-width="1" />
    <text x="-10" y="0" font-family="Arial, sans-serif" font-size="12" text-anchor="end" dominant-baseline="middle">4000</text>
    <text x="-40" y="240" font-family="Arial, sans-serif" font-size="12" text-anchor="middle" transform="rotate(-90, -40, 240)">Execution Time (ms)</text>
    <line x1="0" y1="480" x2="700" y2="480" stroke="#000" stroke-width="1" />
    <text x="175" y="510" font-family="Arial, sans-serif" font-size="12" text-anchor="middle">thousand-functions</text>
    <rect x="70" y="371.88515709" width="56" height="108.11484291000001" fill="#4285F4" />
    <text x="98" y="425.942578545" font-family="Arial, sans-serif" font-size="12" text-anchor="middle" fill="#fff" dominant-baseline="middle">901 ms</text>
    <rect x="140" y="468.55912084" width="56" height="11.44087915999998" fill="#34A853" />
    <text x="168" y="463.55912084" font-family="Arial, sans-serif" font-size="12" text-anchor="middle">95 ms</text>
    <rect x="210" y="472.15656209" width="56" height="7.843437909999999" fill="#FBBC05" />
    <text x="238" y="467.15656209" font-family="Arial, sans-serif" font-size="12" text-anchor="middle">65 ms</text>
    <text x="525" y="510" font-family="Arial, sans-serif" font-size="12" text-anchor="middle">thousand-typed-functions</text>
    <rect x="420" y="93.19811124" width="56" height="386.80188876" fill="#4285F4" />
    <text x="448" y="286.59905562" font-family="Arial, sans-serif" font-size="12" text-anchor="middle" fill="#fff" dominant-baseline="middle">3223 ms</text>
    <rect x="490" y="66.53791168000004" width="56" height="413.46208831999996" fill="#34A853" />
    <text x="518" y="273.26895584" font-family="Arial, sans-serif" font-size="12" text-anchor="middle" fill="#fff" dominant-baseline="middle">3446 ms</text>
    <rect x="560" y="431.33854585" width="56" height="48.661454150000004" fill="#FBBC05" />
    <text x="588" y="455.66927292500003" font-family="Arial, sans-serif" font-size="12" text-anchor="middle" fill="#fff" dominant-baseline="middle">406 ms</text>
    <text x="710" y="0" font-family="Arial, sans-serif" font-size="12" font-weight="bold" text-anchor="start">Items:</text>
    <rect x="710" y="25" width="15" height="15" fill="#4285F4" />
    <text x="735" y="37" font-family="Arial, sans-serif" font-size="12" text-anchor="start">unbuild</text>
    <rect x="710" y="50" width="15" height="15" fill="#34A853" />
    <text x="735" y="62" font-family="Arial, sans-serif" font-size="12" text-anchor="start">tsup</text>
    <rect x="710" y="75" width="15" height="15" fill="#FBBC05" />
    <text x="735" y="87" font-family="Arial, sans-serif" font-size="12" text-anchor="start">tsdown</text>
  </g>
</svg>