<svg width="900" height="600" xmlns="http://www.w3.org/2000/svg">
  <rect width="900" height="600" fill="white" />
  <text x="450" y="30" font-family="Arial, sans-serif" font-size="16" font-weight="bold" text-anchor="middle">Execution Time Benchmark (less is better)</text>
  <g transform="translate(80, 60)">
    <line x1="0" y1="480" x2="700" y2="480" stroke="#ddd" stroke-width="1" />
    <text x="-10" y="480" font-family="Arial, sans-serif" font-size="10" text-anchor="end" dominant-baseline="middle">0</text>
    <line x1="0" y1="432" x2="700" y2="432" stroke="#ddd" stroke-width="1" />
    <text x="-10" y="432" font-family="Arial, sans-serif" font-size="10" text-anchor="end" dominant-baseline="middle">400</text>
    <line x1="0" y1="384" x2="700" y2="384" stroke="#ddd" stroke-width="1" />
    <text x="-10" y="384" font-family="Arial, sans-serif" font-size="10" text-anchor="end" dominant-baseline="middle">800</text>
    <line x1="0" y1="336" x2="700" y2="336" stroke="#ddd" stroke-width="1" />
    <text x="-10" y="336" font-family="Arial, sans-serif" font-size="10" text-anchor="end" dominant-baseline="middle">1200</text>
    <line x1="0" y1="288" x2="700" y2="288" stroke="#ddd" stroke-width="1" />
    <text x="-10" y="288" font-family="Arial, sans-serif" font-size="10" text-anchor="end" dominant-baseline="middle">1600</text>
    <line x1="0" y1="240" x2="700" y2="240" stroke="#ddd" stroke-width="1" />
    <text x="-10" y="240" font-family="Arial, sans-serif" font-size="10" text-anchor="end" dominant-baseline="middle">2000</text>
    <line x1="0" y1="192" x2="700" y2="192" stroke="#ddd" stroke-width="1" />
    <text x="-10" y="192" font-family="Arial, sans-serif" font-size="10" text-anchor="end" dominant-baseline="middle">2400</text>
    <line x1="0" y1="144" x2="700" y2="144" stroke="#ddd" stroke-width="1" />
    <text x="-10" y="144" font-family="Arial, sans-serif" font-size="10" text-anchor="end" dominant-baseline="middle">2800</text>
    <line x1="0" y1="96" x2="700" y2="96" stroke="#ddd" stroke-width="1" />
    <text x="-10" y="96" font-family="Arial, sans-serif" font-size="10" text-anchor="end" dominant-baseline="middle">3200</text>
    <line x1="0" y1="48" x2="700" y2="48" stroke="#ddd" stroke-width="1" />
    <text x="-10" y="48" font-family="Arial, sans-serif" font-size="10" text-anchor="end" dominant-baseline="middle">3600</text>
    <line x1="0" y1="0" x2="700" y2="0" stroke="#ddd" stroke-width="1" />
    <text x="-10" y="0" font-family="Arial, sans-serif" font-size="10" text-anchor="end" dominant-baseline="middle">4000</text>
    <text x="-40" y="240" font-family="Arial, sans-serif" font-size="10" text-anchor="middle" transform="rotate(-90, -40, 240)">Execution Time (ms)</text>
    <line x1="0" y1="480" x2="700" y2="480" stroke="#000" stroke-width="1" />
    <text x="175" y="510" font-family="Arial, sans-serif" font-size="10" text-anchor="middle">thousand-functions</text>
    <rect x="70" y="371.76673916" width="33.6" height="108.23326084" fill="#4285F4" />
    <text x="86.8" y="425.88336957999996" font-family="Arial, sans-serif" font-size="10" text-anchor="middle" fill="#fff" dominant-baseline="middle">902 ms</text>
    <rect x="112" y="469.61008166000005" width="33.6" height="10.389918339999943" fill="#34A853" />
    <text x="128.8" y="464.61008166000005" font-family="Arial, sans-serif" font-size="10" text-anchor="middle">87 ms</text>
    <rect x="154" y="473.627746968" width="33.6" height="6.372253032000001" fill="#FBBC05" />
    <text x="170.8" y="468.627746968" font-family="Arial, sans-serif" font-size="10" text-anchor="middle">53 ms</text>
    <rect x="196" y="473.77932" width="33.6" height="6.22068" fill="#FBA305" />
    <text x="212.8" y="468.77932" font-family="Arial, sans-serif" font-size="10" text-anchor="middle">52 ms</text>
    <rect x="238" y="329.17760208" width="33.6" height="150.82239792000001" fill="#EA4335" />
    <text x="254.8" y="404.58880104" font-family="Arial, sans-serif" font-size="10" text-anchor="middle" fill="#fff" dominant-baseline="middle">1257 ms</text>
    <text x="525" y="510" font-family="Arial, sans-serif" font-size="10" text-anchor="middle">thousand-typed-functions</text>
    <rect x="420" y="105.57026289999999" width="33.6" height="374.4297371" fill="#4285F4" />
    <text x="436.8" y="292.78513145" font-family="Arial, sans-serif" font-size="10" text-anchor="middle" fill="#fff" dominant-baseline="middle">3120 ms</text>
    <rect x="462" y="84.16757043000001" width="33.6" height="395.83242957" fill="#34A853" />
    <text x="478.8" y="282.08378521500003" font-family="Arial, sans-serif" font-size="10" text-anchor="middle" fill="#fff" dominant-baseline="middle">3299 ms</text>
    <rect x="504" y="429.1069479" width="33.6" height="50.8930521" fill="#FBBC05" />
    <text x="520.8" y="454.55347395" font-family="Arial, sans-serif" font-size="10" text-anchor="middle" fill="#fff" dominant-baseline="middle">424 ms</text>
    <rect x="546" y="405.69359709" width="33.6" height="74.30640291" fill="#FBA305" />
    <text x="562.8" y="442.846798545" font-family="Arial, sans-serif" font-size="10" text-anchor="middle" fill="#fff" dominant-baseline="middle">619 ms</text>
    <rect x="588" y="290.3403479400003" width="33.6" height="189.6596520599997" fill="#EA4335" />
    <text x="604.8" y="385.1701739700002" font-family="Arial, sans-serif" font-size="10" text-anchor="middle" fill="#fff" dominant-baseline="middle">1580 ms</text>
    <text x="710" y="0" font-family="Arial, sans-serif" font-size="10" font-weight="bold" text-anchor="start">Items:</text>
    <rect x="710" y="25" width="15" height="15" fill="#4285F4" />
    <text x="735" y="37" font-family="Arial, sans-serif" font-size="10" text-anchor="start">unbuild</text>
    <rect x="710" y="50" width="15" height="15" fill="#34A853" />
    <text x="735" y="62" font-family="Arial, sans-serif" font-size="10" text-anchor="start">tsup</text>
    <rect x="710" y="75" width="15" height="15" fill="#FBBC05" />
    <text x="735" y="87" font-family="Arial, sans-serif" font-size="10" text-anchor="start">tsdown (oxc)</text>
    <rect x="710" y="100" width="15" height="15" fill="#FBA305" />
    <text x="735" y="112" font-family="Arial, sans-serif" font-size="10" text-anchor="start">tsdown (tsc)</text>
    <rect x="710" y="125" width="15" height="15" fill="#EA4335" />
    <text x="735" y="137" font-family="Arial, sans-serif" font-size="10" text-anchor="start">rslib</text>
  </g>
</svg>