<svg width="900" height="600" xmlns="http://www.w3.org/2000/svg">
  <rect width="900" height="600" fill="white" />
  <text x="450" y="30" font-family="Arial, sans-serif" font-size="18" font-weight="bold" text-anchor="middle">Execution Time Benchmark (less is better)</text>
  <g transform="translate(80, 60)">
    <line x1="0" y1="480" x2="700" y2="480" stroke="#ddd" stroke-width="1" />
    <text x="-10" y="480" font-family="Arial, sans-serif" font-size="12" text-anchor="end" dominant-baseline="middle">0</text>
    <line x1="0" y1="432" x2="700" y2="432" stroke="#ddd" stroke-width="1" />
    <text x="-10" y="432" font-family="Arial, sans-serif" font-size="12" text-anchor="end" dominant-baseline="middle">400</text>
    <line x1="0" y1="384" x2="700" y2="384" stroke="#ddd" stroke-width="1" />
    <text x="-10" y="384" font-family="Arial, sans-serif" font-size="12" text-anchor="end" dominant-baseline="middle">800</text>
    <line x1="0" y1="336" x2="700" y2="336" stroke="#ddd" stroke-width="1" />
    <text x="-10" y="336" font-family="Arial, sans-serif" font-size="12" text-anchor="end" dominant-baseline="middle">1200</text>
    <line x1="0" y1="288" x2="700" y2="288" stroke="#ddd" stroke-width="1" />
    <text x="-10" y="288" font-family="Arial, sans-serif" font-size="12" text-anchor="end" dominant-baseline="middle">1600</text>
    <line x1="0" y1="240" x2="700" y2="240" stroke="#ddd" stroke-width="1" />
    <text x="-10" y="240" font-family="Arial, sans-serif" font-size="12" text-anchor="end" dominant-baseline="middle">2000</text>
    <line x1="0" y1="192" x2="700" y2="192" stroke="#ddd" stroke-width="1" />
    <text x="-10" y="192" font-family="Arial, sans-serif" font-size="12" text-anchor="end" dominant-baseline="middle">2400</text>
    <line x1="0" y1="144" x2="700" y2="144" stroke="#ddd" stroke-width="1" />
    <text x="-10" y="144" font-family="Arial, sans-serif" font-size="12" text-anchor="end" dominant-baseline="middle">2800</text>
    <line x1="0" y1="96" x2="700" y2="96" stroke="#ddd" stroke-width="1" />
    <text x="-10" y="96" font-family="Arial, sans-serif" font-size="12" text-anchor="end" dominant-baseline="middle">3200</text>
    <line x1="0" y1="48" x2="700" y2="48" stroke="#ddd" stroke-width="1" />
    <text x="-10" y="48" font-family="Arial, sans-serif" font-size="12" text-anchor="end" dominant-baseline="middle">3600</text>
    <line x1="0" y1="0" x2="700" y2="0" stroke="#ddd" stroke-width="1" />
    <text x="-10" y="0" font-family="Arial, sans-serif" font-size="12" text-anchor="end" dominant-baseline="middle">4000</text>
    <text x="-40" y="240" font-family="Arial, sans-serif" font-size="12" text-anchor="middle" transform="rotate(-90, -40, 240)">Execution Time (ms)</text>
    <line x1="0" y1="480" x2="700" y2="480" stroke="#000" stroke-width="1" />
    <text x="175" y="510" font-family="Arial, sans-serif" font-size="12" text-anchor="middle">thousand-functions</text>
    <rect x="70" y="381.09756500000003" width="56" height="98.902435" fill="#4285F4" />
    <text x="98" y="430.5487825" font-family="Arial, sans-serif" font-size="12" text-anchor="middle" fill="#fff" dominant-baseline="middle">824 ms</text>
    <rect x="140" y="470.6315375" width="56" height="9.3684625" fill="#34A853" />
    <text x="168" y="465.6315375" font-family="Arial, sans-serif" font-size="12" text-anchor="middle">78 ms</text>
    <rect x="210" y="472.5351908500001" width="56" height="7.464809149999906" fill="#FBBC05" />
    <text x="238" y="467.5351908500001" font-family="Arial, sans-serif" font-size="12" text-anchor="middle">62 ms</text>
    <text x="525" y="510" font-family="Arial, sans-serif" font-size="12" text-anchor="middle">thousand-typed-functions</text>
    <rect x="420" y="118.40662957999996" width="56" height="361.59337042000004" fill="#4285F4" />
    <text x="448" y="299.20331479" font-family="Arial, sans-serif" font-size="12" text-anchor="middle" fill="#fff" dominant-baseline="middle">3013 ms</text>
    <rect x="490" y="87.55740040999996" width="56" height="392.44259959000004" fill="#34A853" />
    <text x="518" y="283.77870020499995" font-family="Arial, sans-serif" font-size="12" text-anchor="middle" fill="#fff" dominant-baseline="middle">3270 ms</text>
    <rect x="560" y="376.07621415" width="56" height="103.92378585" fill="#FBBC05" />
    <text x="588" y="428.03810707499997" font-family="Arial, sans-serif" font-size="12" text-anchor="middle" fill="#fff" dominant-baseline="middle">866 ms</text>
    <text x="710" y="0" font-family="Arial, sans-serif" font-size="12" font-weight="bold" text-anchor="start">Bundlers:</text>
    <rect x="710" y="25" width="15" height="15" fill="#4285F4" />
    <text x="735" y="37" font-family="Arial, sans-serif" font-size="12" text-anchor="start">unbuild</text>
    <rect x="710" y="50" width="15" height="15" fill="#34A853" />
    <text x="735" y="62" font-family="Arial, sans-serif" font-size="12" text-anchor="start">tsup</text>
    <rect x="710" y="75" width="15" height="15" fill="#FBBC05" />
    <text x="735" y="87" font-family="Arial, sans-serif" font-size="12" text-anchor="start">tsdown</text>
  </g>
</svg>